# xmcd
#
# Track frame offsets: 
#        180
#        12904
#        30400
#        51779
#        68537
#        82614
#        99599
#        124151
#        138591
#        156391
#        170611
#        184975
#        205306
#        225882
#        228281
#
# Disc length: 3190 seconds
#
# Revision: 0
# Processed by: cddbd v1.5.1PL0 Copyright (c) Steve Scherf et al.
# Submitted via: ExactAudioCopy v0.95a5
#
DISCID=b80c740f
DTITLE=Don Osburn - Small Fine Pleasures
DYEAR=1900
DGENRE=Country
TTITLE0=Goes Fast,Don't Last
TTITLE1=Where The Westerlies Blow Onshore
TTITLE2=Train Song
TTITLE3=I Know Where I'm Going
TTITLE4=The Well's Gone Dry
TTITLE5=Slippery Jack
TTITLE6=Small Fine Pleasures
TTITLE7=Tumblin' Down
TTITLE8=Bottle Of Beer
TTITLE9=Closing Of A Door
TTITLE10=No Cause To Regret
TTITLE11=Roof Of The World
TTITLE12=Great Songs About Life
TTITLE13=nothing
TTITLE14=Cooking With A Jerk
EXTD=
EXTT0=
EXTT1=
EXTT2=
EXTT3=
EXTT4=
EXTT5=
EXTT6=
EXTT7=
EXTT8=
EXTT9=
EXTT10=
EXTT11=
EXTT12=
EXTT13=
EXTT14=
PLAYORDER=
